<?xml version="1.0" standalone="no"?>
<!DOCTYPE svg PUBLIC "-//W3C//DTD SVG 20010904//EN"
 "http://www.w3.org/TR/2001/REC-SVG-20010904/DTD/svg10.dtd">
<svg version="1.0" xmlns="http://www.w3.org/2000/svg"
 width="268.000000pt" height="140.000000pt" viewBox="0 0 268.000000 140.000000"
 preserveAspectRatio="xMidYMid meet">

<g transform="translate(0.000000,140.000000) scale(0.100000,-0.100000)"
fill="#000000" stroke="none">
<path d="M1505 971 c-10 -17 12 -21 25 -6 10 12 10 15 -3 15 -9 0 -18 -4 -22
-9z"/>
<path d="M106 927 c-43 -41 -56 -73 -56 -136 0 -96 85 -169 182 -158 94 11
133 52 88 92 -15 14 -23 15 -34 6 -26 -22 -76 -31 -102 -19 -36 17 -64 76 -52
108 25 66 81 87 139 53 27 -16 29 -16 49 2 50 45 0 85 -108 85 -66 0 -73 -2
-106 -33z"/>
<path d="M410 800 l0 -160 115 0 115 0 0 30 0 30 -80 0 -80 0 0 130 0 130 -35
0 -35 0 0 -160z"/>
<path d="M710 800 l0 -160 35 0 35 0 0 160 0 160 -35 0 -35 0 0 -160z"/>
<path d="M850 800 l0 -160 35 0 35 0 0 60 0 60 75 0 75 0 0 35 0 35 -75 0 -75
0 0 30 0 30 85 0 85 0 0 35 0 35 -120 0 -120 0 0 -160z"/>
<path d="M1160 925 c0 -35 0 -35 45 -35 l45 0 0 -125 0 -125 35 0 35 0 0 125
0 125 50 0 50 0 0 35 0 35 -130 0 -130 0 0 -35z"/>
<path d="M1920 800 l0 -160 40 0 40 0 0 68 c0 103 9 105 76 13 53 -72 63 -80
92 -81 l32 0 0 160 0 160 -35 0 -35 0 0 -67 c0 -104 -9 -106 -76 -14 -55 75
-61 80 -96 81 l-38 0 0 -160z"/>
<path d="M2309 931 c-34 -35 -39 -87 -11 -120 9 -12 44 -31 77 -44 98 -38 75
-87 -24 -52 -41 14 -46 14 -63 -1 -26 -24 -22 -41 13 -60 110 -57 234 0 215
98 -7 37 -40 63 -110 83 -28 8 -42 18 -44 32 -5 30 25 36 69 15 40 -20 49 -17
72 25 12 20 -59 53 -114 53 -42 0 -55 -5 -80 -29z"/>
<path d="M1466 884 c-10 -25 -7 -34 9 -34 8 0 15 9 15 19 0 26 -16 35 -24 15z"/>
<path d="M1480 815 c0 -16 6 -25 15 -25 9 0 15 9 15 25 0 16 -6 25 -15 25 -9
0 -15 -9 -15 -25z"/>
<path d="M1557 713 c-13 -12 -7 -33 8 -33 8 0 15 9 15 20 0 20 -11 26 -23 13z"/>
</g>
</svg>
